<?xml version="1.0" encoding="utf-8"?>
<!-- Generator: Adobe Illustrator 24.0.1, SVG Export Plug-In . SVG Version: 6.00 Build 0)  -->
<svg version="1.1" id="Layer_1" xmlns="http://www.w3.org/2000/svg" xmlns:xlink="http://www.w3.org/1999/xlink" x="0px" y="0px"
	 viewBox="0 0 500 500" style="enable-background:new 0 0 500 500;" xml:space="preserve">
<g>
	<path d="M111.18,275.32c-11.33-1.28-19.8-3.92-25.39-7.93c-5.6-4.01-7.69-9.21-6.29-15.61c1.4-6.4,6.89-13.82,16.47-22.26
		c3.46-2.99,8.36-6.73,14.69-11.24c6.33-4.5,13.25-8.86,20.77-13.05c7.51-4.2,14.81-7.34,21.87-9.42c7.06-2.09,13.06-2.23,18-0.43
		c3.7,1.61,5.75,4.14,6.15,7.58c0.4,3.44-0.14,7.2-1.64,11.27c-1.49,4.08-3.3,7.92-5.41,11.52c-2.11,3.6-3.88,6.4-5.3,8.39
		c-2.09,3.13-5.36,7.78-9.82,13.94c-5.22,7.35-10.89,15.45-17.03,24.29c-6.14,8.84-11.54,17.02-16.18,24.54
		c-4.65,7.51-7.35,12.91-8.11,16.18c-0.05,0.66,0.07,1.28,0.36,1.85c0.14,0.33,0.22,0.65,0.25,0.96c0.02,0.31-0.13,0.6-0.46,0.89
		c-0.71,0.43-1.3,0.44-1.78,0.04c-0.47-0.4-0.81-1.02-1-1.85c-0.19-0.83-0.21-1.67-0.07-2.53c0.81-3.56,3.75-9.51,8.82-17.85
		c5.07-8.35,10.85-17.31,17.32-26.89c6.47-9.58,12.27-18.02,17.39-25.32c3.13-4.5,5.52-7.97,7.18-10.38c0.95-1.38,2.35-3.6,4.2-6.69
		c1.85-3.08,3.57-6.44,5.16-10.06c1.59-3.63,2.41-6.95,2.45-9.96c0.05-3.01-1.26-5.13-3.91-6.37c-4.41-1.61-10.01-1.33-16.79,0.85
		c-6.78,2.18-13.85,5.36-21.2,9.53c-7.35,4.17-14.08,8.43-20.2,12.77c-6.12,4.34-10.74,7.86-13.87,10.56
		c-6.35,5.55-10.61,10.37-12.77,14.47c-2.16,4.1-2.83,7.58-2.03,10.42c0.81,2.84,2.46,5.16,4.98,6.93c2.51,1.78,5.25,3.13,8.21,4.05
		c2.96,0.92,5.56,1.49,7.79,1.71c2.23,0.21,3.44,0.2,3.63-0.04c0.19-0.52,0.52-0.88,1-1.07c0.47-0.19,0.97-0.19,1.49,0
		c1.94,0.81,3.15,1.56,3.63,2.28c0.66,1.04,0.71,1.97,0.14,2.77C113.32,274.99,112.42,275.37,111.18,275.32z"/>
	<path d="M179.32,269.88c-3.6,3.25-7.33,6.33-11.17,9.25s-7.22,4.96-10.14,6.12c-2.92,1.16-4.8,0.77-5.65-1.17
		c-0.52-1.75,0.39-4.55,2.74-8.39s5.49-7.8,9.42-11.88c3.94-4.08,8.08-7.4,12.45-9.96c4.36-2.56,8.32-3.46,11.88-2.7
		c0.95,0.28,1.59,0.57,1.92,0.85c0.24,0.14,0.46,0.25,0.68,0.32c0.21,0.07,0.46,0.02,0.75-0.14c0.28-0.17,0.66-0.49,1.14-0.96
		c1.85-1.71,3.37-3.27,4.55-4.69c1.19-1.42,2.44-3.25,3.77-5.48c4.03-6.78,7.23-11.97,9.6-15.58c3.22-4.98,6.9-9.77,11.02-14.37
		c4.13-4.6,7.73-8.16,10.81-10.67c0.85-0.71,1.87-1.24,3.06-1.6c1.18-0.36,2.25-0.4,3.2-0.14c0.95,0.26,1.49,0.98,1.64,2.17
		c-0.19,1.52-1.75,4.46-4.69,8.82c-4.6,6.69-9.52,12.91-14.76,18.67c-5.24,5.76-10.21,10.8-14.9,15.11
		c-1.95,1.9-3.44,3.52-4.48,4.87c-1.04,1.35-2.28,3.24-3.7,5.65c-4.84,8.01-9.66,15.91-14.47,23.69
		c-4.81,7.78-8.84,14.26-12.09,19.45c-3.25,5.19-4.97,7.91-5.16,8.14c-0.33,0.52-0.72,0.83-1.17,0.92
		c-0.45,0.09-0.77-0.02-0.96-0.36c-0.19-0.33-0.07-0.88,0.36-1.64c2.7-4.69,6.07-10.57,10.1-17.64
		c5.97-10.48,10.88-18.99,14.72-25.53c1-1.56,1.38-2.28,1.14-2.13c-0.24,0.14-0.95,0.81-2.13,1.99c-0.19,0.24-0.4,0.47-0.64,0.71
		C185.87,263.87,182.93,266.63,179.32,269.88z M176.83,258.07c-4.41,3.11-8.55,6.73-12.41,10.88c-3.87,4.15-6.58,7.6-8.14,10.35
		c-0.71,1.28-1.13,2.24-1.24,2.88c-0.12,0.64,0.39,0.65,1.53,0.04c3.41-1.9,8.06-5.3,13.94-10.21c5.88-4.91,11.97-10.37,18.28-16.4
		c0.47-0.43,0.69-0.77,0.64-1.03c-0.05-0.26-0.4-0.46-1.07-0.6C185.08,253.6,181.24,254.97,176.83,258.07z M233.38,207.96
		c1.09-1.66,1.73-2.79,1.92-3.38c0.19-0.59,0.08-0.83-0.32-0.71c-0.4,0.12-0.97,0.45-1.71,1c-0.74,0.55-1.48,1.15-2.24,1.81
		c-0.76,0.66-1.38,1.23-1.85,1.71c-2.51,2.66-5.28,5.87-8.29,9.64c-3.01,3.77-5.56,7.24-7.65,10.42c-1.56,2.51-2.54,4.21-2.92,5.09
		c-0.38,0.88-0.33,1.16,0.14,0.85c0.47-0.31,1.22-0.98,2.24-2.03c1.02-1.04,2.12-2.21,3.31-3.49c0.76-0.85,1.52-1.66,2.28-2.42
		C223.71,220.86,228.73,214.69,233.38,207.96z"/>
	<path d="M219.51,257.32c2.66,0.57,3.72,1.71,3.2,3.42c-0.52,1.71-1.9,3.48-4.13,5.33c-2.23,1.85-4.54,3.24-6.94,4.16
		c-2.4,0.92-4.14,0.89-5.23-0.11c-0.76,0.95-1.62,2.19-2.6,3.73c-0.97,1.54-1.53,2.91-1.67,4.09c0,1.8,1.23,2.58,3.7,2.35
		c2.46-0.24,5.41-1.02,8.82-2.35c3.41-1.33,6.54-2.69,9.39-4.09c2.85-1.4,4.65-2.36,5.41-2.88c0.57-0.38,1.1-0.54,1.6-0.5
		c0.5,0.05,0.71,0.31,0.64,0.78c-0.07,0.47-0.7,1.14-1.88,1.99c-1.42,1-3.83,2.41-7.22,4.23c-3.39,1.83-6.98,3.4-10.78,4.73
		c-3.79,1.33-7.02,1.78-9.67,1.35s-3.94-2.37-3.84-5.83c0.24-2.32,1.56-5.1,3.98-8.32c2.42-3.22,5.23-6.06,8.43-8.5
		S216.85,257.28,219.51,257.32z M218.09,261.24c-0.43,0.14-1.16,0.53-2.21,1.17c-1.04,0.64-2.15,1.36-3.31,2.17
		c-1.16,0.81-2.17,1.56-3.02,2.28c-0.85,0.71-1.35,1.23-1.49,1.57c-0.14,0.33,0.28,0.33,1.28,0c1.37-0.52,3.06-1.43,5.05-2.74
		c1.99-1.3,3.51-2.5,4.55-3.59c0.47-0.52,0.68-0.85,0.6-1C219.47,260.95,218.99,261,218.09,261.24z"/>
	<path d="M266.24,270.63c1.28-0.66,2.04-0.71,2.28-0.14c0.24,0.57-0.21,1.26-1.35,2.06c-1.8,1.09-4.12,2.15-6.94,3.17
		c-2.82,1.02-5.35,1.33-7.57,0.92c-2.23-0.4-3.39-2.19-3.49-5.37v-0.36c0.05-0.66,0-1.01-0.14-1.03c-0.14-0.02-0.55,0.18-1.21,0.6
		c-7.35,4.79-12.74,7.78-16.18,8.96s-5.46,1.23-6.08,0.14c-0.76-1.52,0.19-3.88,2.85-7.08c2.66-3.2,6.08-6.25,10.28-9.14
		c4.2-2.89,8.22-4.63,12.06-5.23c3.84-0.59,6.54,0.94,8.11,4.59c0.14,0.47,0.07,0.9-0.21,1.28c-0.29,0.38-0.67,0.64-1.14,0.78
		c-0.47,0.14-1.01,0.05-1.6-0.28c-0.59-0.33-1.01-0.73-1.25-1.21c0-0.09,0.02-0.19,0.07-0.29c0.05-0.09,0.09-0.19,0.14-0.28
		c0.05-0.09,0.1-0.19,0.14-0.28s0.05-0.19,0-0.29c-1.19-1.61-3.22-1.85-6.12-0.71c-2.89,1.14-5.95,2.92-9.18,5.33
		c-3.23,2.42-5.95,4.71-8.18,6.86c-2.23,2.16-3.27,3.47-3.13,3.95c0.19,0.47,2.06-0.31,5.62-2.35c3.56-2.04,9.39-5.86,17.5-11.45
		c0.43-0.24,0.87-0.32,1.32-0.25c0.45,0.07,0.82,0.32,1.1,0.75c0.33,0.57,0.36,1.14,0.07,1.71c-1.8,3.89-2,6.28-0.6,7.18
		c1.4,0.9,3.41,0.97,6.04,0.21C262.08,272.64,264.34,271.72,266.24,270.63z"/>
	<path d="M238,322.05c-0.52-0.24-0.75-0.74-0.68-1.49c0.07-0.76,0.59-2.04,1.56-3.84c0.97-1.8,2.51-4.43,4.62-7.89
		c2.11-3.46,4.92-8.04,8.43-13.73c3.98-6.36,9.06-14.51,15.22-24.47c1.61-3.03,4.91-8.74,9.89-17.11
		c4.98-8.37,10.53-17.43,16.64-27.17c6.12-9.74,11.7-18.23,16.75-25.46c5.05-7.23,8.5-11.27,10.35-12.13
		c2.89-0.85,4.33-0.15,4.3,2.1c-0.02,2.25-0.83,5.15-2.42,8.68c-1.59,3.53-3.27,6.85-5.05,9.96c-1.78,3.11-2.95,5.11-3.52,6.01
		c-0.05,0.05-0.07,0.1-0.07,0.14c-6.5,10.48-13.67,21.01-21.52,31.58c-7.85,10.57-13.88,17.66-18.1,21.27
		c-0.81,0.57-1.35,0.92-1.64,1.07c-0.24,0.14-0.44,0.28-0.6,0.43c-0.17,0.14-0.37,0.38-0.6,0.71c-0.24,0.33-0.57,0.85-1,1.57
		l-28.24,46.02c0.14,0,0.11,0.25-0.11,0.75c-0.21,0.5-0.53,1.04-0.96,1.64c-0.43,0.59-0.94,1.04-1.53,1.35
		C239.15,322.32,238.57,322.33,238,322.05z M278.69,259.17c-0.66,1.04-0.98,1.64-0.96,1.78c0.02,0.14,0.46-0.31,1.32-1.35
		c4.69-5.97,9.93-13.16,15.72-21.55c5.78-8.39,11.12-16.52,16-24.4c5.83-9.67,9.21-15.91,10.13-18.71c0.92-2.8-0.3-1.99-3.66,2.42
		c-4.74,6.54-9.41,13.54-14.01,20.98c-4.6,7.45-9.1,14.94-13.51,22.48C285.97,247.18,282.29,253.29,278.69,259.17z"/>
	<path d="M286.65,281.22c0.38-0.24,0.83-0.9,1.35-1.99c0.52-1.09,1.12-2.42,1.78-3.98c1.23-3.13,2.68-6.19,4.34-9.18
		c1.66-2.99,3.53-4.67,5.62-5.05c0.66,0.14,1.16,0.46,1.49,0.96c0.33,0.5,0.24,1.08-0.29,1.74c-0.81,1.09-1.51,1.96-2.1,2.6
		c-0.59,0.64-1.2,1.27-1.81,1.88c-0.62,0.62-1.38,1.4-2.28,2.35c-0.62,1.56-1.21,3.13-1.78,4.69c-0.24,0.76-0.5,1.49-0.78,2.21
		c-0.14,0.52-0.23,0.89-0.25,1.1c-0.02,0.21,0.05,0.32,0.21,0.32s0.39-0.05,0.68-0.14c0.05-0.05,0.09-0.07,0.14-0.07
		c0.95-0.29,1.61-0.27,1.99,0.04c0.38,0.31,0.5,0.7,0.36,1.17c-0.14,0.47-0.5,0.88-1.07,1.21c-0.52,0.29-1.04,0.45-1.56,0.5
		c-0.62,0.09-1.21,0.33-1.78,0.71c-0.33,0.24-0.66,0.59-1,1.07c-0.33,0.47-0.62,0.92-0.85,1.35c-1.8,3.46-4.36,6.71-7.68,9.74
		c-3.32,3.03-7.25,4.86-11.81,5.48c-3.56,0.33-5.29-0.12-5.19-1.35c0.1-1.23,1.34-2.9,3.73-5.01c2.4-2.11,5.3-4.28,8.71-6.51
		C280.25,284.83,283.52,282.88,286.65,281.22z M283.03,287.98c0.24-0.28,0.5-0.6,0.78-0.96c0.29-0.36,0.52-0.7,0.71-1.03
		c0.19-0.33,0.28-0.58,0.28-0.75c0-0.17-0.14-0.2-0.43-0.11c-1.04,0.47-2.48,1.34-4.3,2.6c-1.82,1.26-3.69,2.61-5.58,4.05
		c-1.9,1.45-3.43,2.69-4.59,3.73c-1.16,1.04-1.6,1.59-1.32,1.64c1.56,0.09,3.82-0.77,6.76-2.6
		C278.29,292.73,280.85,290.54,283.03,287.98z"/>
	<path d="M319.09,281.58c-3.32,3.22-6.44,4.41-9.35,3.56c-2.92-0.85-4.33-3.38-4.23-7.58c0.1-4.2,3.06-9.68,8.89-16.47
		c2.23-2.42,4.01-3.82,5.33-4.2c1.09-0.38,1.92-0.34,2.49,0.11c0.57,0.45,0.59,1.34,0.07,2.67c-1,1.04-1.8,1.68-2.42,1.92
		s-1.11,0.33-1.49,0.28c-0.19,0-0.37,0.01-0.53,0.04c-0.17,0.02-0.32,0.13-0.46,0.32c-4.5,5.36-7.24,9.67-8.21,12.95
		c-0.97,3.27-0.84,5.49,0.39,6.65c1.23,1.16,2.89,1.2,4.98,0.11c0.95-0.57,2.01-1.64,3.2-3.2c1.18-1.57,2.16-3.11,2.92-4.62
		c0.14-0.24,0.26-0.43,0.36-0.57c0.14-0.19,0.21-0.36,0.21-0.5s-0.12-0.31-0.36-0.5c-0.85-0.85-1.59-1.98-2.21-3.38
		c-0.62-1.4-0.74-2.67-0.36-3.8c0.38-0.76,1.09-1.09,2.13-1c1.04,0.1,2.04,0.64,2.99,1.64c0.95,1,1.45,2.49,1.49,4.48
		c0.09,1.42,0.59,2.41,1.49,2.95c0.9,0.55,1.9,0.74,2.99,0.57c1.09-0.17,1.99-0.58,2.7-1.24c0.62-0.57,1.05-0.72,1.32-0.46
		c0.26,0.26,0.22,0.7-0.11,1.32c-0.33,0.62-1.07,1.19-2.21,1.71c-1.8,0.71-3.19,0.97-4.16,0.78s-1.7-0.45-2.17-0.78
		c-0.33-0.29-0.64-0.42-0.92-0.39c-0.28,0.02-0.57,0.32-0.85,0.89c-0.47,0.85-1.08,1.85-1.81,2.99
		C320.45,279.94,319.75,280.87,319.09,281.58z"/>
	<path d="M332.6,281.86c-0.19,0.05-0.38,0.07-0.57,0.07c-1.18,0.19-2.04,0.42-2.56,0.68c-0.52,0.26-1.04,0.82-1.57,1.67
		c-3.18,5.12-6.09,9.86-8.75,14.23c-3.46,5.64-7.25,11.78-11.38,18.42c-0.76,1.56-1.73,2.64-2.92,3.24
		c-1.18,0.59-2.12,0.62-2.81,0.07c-0.69-0.55-0.7-1.77-0.04-3.66c0.14-0.52,0.31-0.89,0.5-1.1c0.19-0.21,0.38-0.33,0.57-0.36
		c0.19-0.02,0.4-0.01,0.64,0.04c0.19,0,0.38-0.01,0.57-0.04c0.19-0.02,0.38-0.13,0.57-0.32c3.37-5.36,6.44-10.25,9.21-14.69
		c2.77-4.43,5.87-9.33,9.28-14.69c0.14-0.24,0.28-0.45,0.43-0.64c0.43-0.62,0.57-0.99,0.43-1.1c-0.14-0.12-0.81-0.04-1.99,0.25
		c-10.95,2.28-18.38,4.27-22.26,5.97c-3.89,1.71-5.62,3.22-5.19,4.55c0.19,0.76,0.69,1.54,1.49,2.35c0.81,0.81,1.73,1.61,2.77,2.42
		c1.47,1.04,2.73,2.16,3.77,3.34c1.04,1.18,1.4,2.44,1.07,3.77c-0.14,0.57-0.44,1.08-0.89,1.53c-0.45,0.45-1.01,0.58-1.67,0.39
		c-0.28-0.14-0.39-0.28-0.32-0.43c0.07-0.14,0.2-0.28,0.39-0.43c0.1-0.05,0.2-0.13,0.32-0.25c0.12-0.12,0.2-0.23,0.25-0.32
		c0.1-1.23-0.38-2.42-1.42-3.56c-1.04-1.14-2.28-2.28-3.7-3.42c-1.23-0.95-2.32-1.91-3.27-2.88c-0.95-0.97-1.52-1.98-1.71-3.02
		c-0.38-1.61,0.26-3.09,1.92-4.45c1.66-1.35,4.83-2.7,9.5-4.05c4.67-1.35,11.34-2.81,20.02-4.37c1-0.19,1.74-0.36,2.24-0.5
		c0.5-0.14,0.9-0.39,1.21-0.75c0.31-0.36,0.65-0.89,1.03-1.6c1.04-1.8,2.16-3.63,3.34-5.48c0.38-0.62,0.76-1.21,1.14-1.78
		c0-0.57,0.15-1.07,0.46-1.49c0.31-0.43,0.65-0.81,1.03-1.14c15.08-23.61,25.58-39.4,31.51-47.37c0.57-0.81,1.27-1.46,2.1-1.96
		c0.83-0.5,1.62-0.65,2.38-0.46c0.76,0.19,1.33,0.95,1.71,2.28c-0.76,5.26-3.34,11.17-7.75,17.71c-4.41,6.54-9.16,12.7-14.26,18.46
		c-5.1,5.76-9.07,10.06-11.91,12.91c-0.24,0.24-0.45,0.47-0.64,0.71c-0.71,0.62-1.38,1.38-1.99,2.28c-0.62,1.09-1.16,2.04-1.64,2.85
		c-0.76,1.33-1.28,2.26-1.56,2.81c-0.29,0.54-0.31,0.85-0.07,0.92c0.24,0.07,0.71,0.04,1.42-0.11c0.19,0,0.38-0.02,0.57-0.07
		c3.18-0.52,6.57-1.02,10.17-1.49c4.08-0.57,8.54-1.23,13.37-1.99c0.62-0.09,1.07-0.02,1.35,0.21c0.29,0.24,0.38,0.52,0.29,0.85
		c-0.1,0.33-0.45,0.57-1.07,0.71C347.99,279.11,339.62,280.53,332.6,281.86z M352.38,245.52c-6.16,9.1-6.09,9.67,0.21,1.71
		c5.74-7.21,9.71-12.7,11.91-16.47c2.21-3.77,2.37-4.69,0.5-2.77C363.13,229.9,358.92,235.75,352.38,245.52z"/>
	<path d="M358.07,232.5c-0.09,0.43-0.45,0.65-1.07,0.68c-0.62,0.02-1.28-0.11-1.99-0.39c-0.71-0.28-1.23-0.65-1.57-1.1
		c-0.33-0.45-0.24-0.94,0.29-1.46c0.52-0.52,1.68-1.02,3.48-1.49c8.96-1.52,17.76-2.82,26.39-3.91c1.66-0.19,2.93-0.38,3.81-0.57
		c0.88-0.19,1.56-0.51,2.06-0.96c0.5-0.45,1.01-1.17,1.53-2.17c0.85-1.47,1.73-2.94,2.63-4.41c0.19-0.33,0.38-0.66,0.57-1
		c7.35-12.28,12.33-19.61,14.94-21.98c4.08-3.75,5.83-3.13,5.26,1.85c-0.95,6.5-4.27,14.56-9.96,24.18c0,0.05-0.02,0.12-0.07,0.21
		c-0.85,1.33-1.26,2.13-1.21,2.42c0.05,0.28,0.59,0.36,1.64,0.21c0.19,0,0.36,0,0.5,0c0.52-0.05,1.04-0.07,1.56-0.07
		c11.81-0.76,23.95-1.09,36.42-1c0.81,0,1.33,0.18,1.57,0.53c0.24,0.36,0.21,0.69-0.07,1c-0.29,0.31-0.85,0.44-1.71,0.39
		c-13.37-0.24-26.34,0.38-38.91,1.85c-0.43,0.05-0.81,0.1-1.14,0.14c-0.71,0-1.28,0.1-1.71,0.28c-0.43,0.19-0.88,0.66-1.35,1.42
		c-5.93,9.1-12.13,17.66-18.6,25.68c-6.47,8.01-11.87,13.99-16.18,17.92c-0.24,0.24-0.43,0.4-0.57,0.5
		c-0.14,0.1-0.26,0.17-0.36,0.21c-0.1,0.05-0.19,0.12-0.28,0.21c-0.1,0.1-0.21,0.24-0.36,0.43c-0.14,0.19-0.33,0.5-0.57,0.92
		c-10.53,16.79-21.13,33.52-31.79,50.22c0.85,0,1.24,0.32,1.17,0.96c-0.07,0.64-0.44,1.22-1.1,1.74c-2.09,1.56-3.53,2.04-4.34,1.42
		c-0.81-0.62-0.76-1.97,0.14-4.05c2.47-3.89,4.93-7.75,7.4-11.59c17.21-26.74,34.14-53.77,50.79-81.09c0.19-0.38,0.38-0.71,0.57-1
		c0.57-0.81,0.84-1.36,0.82-1.67c-0.02-0.31-0.6-0.37-1.74-0.18c-8.82,1.28-17.78,2.7-26.89,4.27
		C358.07,232.22,358.07,232.36,358.07,232.5z M390.71,228.3c-1.61,2.66-3.3,5.45-5.05,8.39c-4.22,7.3-8.72,14.61-13.51,21.91
		c-2.47,3.7-2.3,4.01,0.5,0.92c7.16-8.34,14.58-18.56,22.26-30.66c0.52-0.9,0.88-1.53,1.07-1.88s0.2-0.57,0.04-0.64
		c-0.17-0.07-0.49-0.08-0.96-0.04c-0.05,0-0.12,0-0.21,0c-0.1,0.05-0.21,0.07-0.36,0.07c-0.81,0.05-1.52,0.18-2.13,0.39
		C391.73,226.99,391.19,227.5,390.71,228.3z M395.19,220.84c-0.47,0.81-0.81,1.47-1,1.99c-0.19,0.52-0.07,0.76,0.36,0.71
		c0.71-0.09,1.42-0.17,2.13-0.21c0.47,0,0.85-0.05,1.14-0.14c0.28-0.09,0.54-0.3,0.78-0.6c0.24-0.31,0.54-0.77,0.92-1.39
		c5.26-9.01,8.91-16.98,10.95-23.9c-2.56,2.85-6.99,9.58-13.3,20.2c-0.28,0.47-0.57,0.95-0.85,1.42
		C395.95,219.53,395.57,220.17,395.19,220.84z"/>
</g>
</svg>
